<?xml version="1.0" encoding="UTF-8"?>
<svg width="211px" height="38px" viewBox="0 0 211 38" version="1.1" xmlns="http://www.w3.org/2000/svg" xmlns:xlink="http://www.w3.org/1999/xlink">
    <!-- Generator: Sketch 57.1 (83088) - https://sketch.com -->
    <title>Logo (Larger) Copy</title>
    <desc>Created with Sketch.</desc>
    <g id="Pricing" stroke="none" stroke-width="1" fill="none" fill-rule="evenodd">
        <g transform="translate(-115.000000, -38.000000)" id="Header">
            <g transform="translate(0.000000, -1.000000)">
                <g id="Blue-BG">
                    <g id="Logo-(Larger)-Copy" transform="translate(115.000000, 38.000000)">
                        <g id="wpfusion-copy" transform="translate(53.600000, 2.880000)" fill="#FFFFFF" fill-rule="nonzero">
                            <path d="M25.4,9.56 L27.6,9.56 L21.4,28.12 L19.6,28.12 L13.8,12.52 L8,28.12 L6.2,28.12 L0,9.56 L2.2,9.56 L7.2,25.12 L13,9.52 L14.6,9.52 L20.4,25.12 L25.4,9.56 Z M49.6,18.92 C49.6,24.44 46,28.52 40.48,28.52 C37.8,28.52 35.28,27.44 33.48,24.64 L33.48,35.72 L31.4,35.72 L31.4,9.56 L33.48,9.56 L33.48,13.16 C35.04,10.52 37.6,9.24 40.4,9.24 C46.12,9.24 49.6,13.44 49.6,18.92 Z M47.4,18.92 C47.4,14.64 44.88,11.04 40.4,11.04 C35.88,11.04 33.4,14.56 33.4,18.92 C33.4,23.16 35.88,26.64 40.4,26.64 C44.88,26.64 47.4,23.24 47.4,18.92 Z M54.36,28.12 L54.36,12.76 L51.72,12.76 L51.72,8.8 L54.36,8.8 L54.36,7.32 C54.36,3.04 56.28,0.04 60.84,0.04 C63.2,0.04 64.64,0.44 64.64,0.44 L64.32,4.12 C64.32,4.12 63.2,3.8 62.12,3.8 C59.92,3.8 59.4,5.28 59.4,7.12 L59.4,8.8 L63.84,8.8 L63.84,12.76 L59.48,12.76 L59.48,28.12 L54.36,28.12 Z M70.28,8.76 L70.28,19.12 C70.28,22 70.76,24.28 73.72,24.28 C76.8,24.28 77.96,21.84 77.96,18.6 L77.96,8.76 L83.08,8.76 L83.08,28.12 L78.12,28.12 L78.08,25.4 C76.96,27.32 74.88,28.48 72.08,28.48 C66.52,28.48 65.16,24.88 65.16,20.24 L65.16,8.76 L70.28,8.76 Z M98.96,13.88 C97.84,13.04 96.2,12.24 94.44,12.24 C92.76,12.24 91.92,12.88 91.92,13.8 C91.92,14.64 92.56,15.32 94.72,16 L96.08,16.44 C100.36,17.84 101.88,19.36 101.88,22.16 C101.88,25.84 98.96,28.56 94.2,28.56 C91.24,28.56 87.92,27.36 86.36,25.56 L88.44,22.08 C90.72,23.84 92.68,24.72 94.32,24.72 C96.24,24.72 97.12,24 97.12,22.88 C97.12,21.88 96.36,21.32 93.88,20.48 L91.64,19.72 C88.76,18.76 87.28,17.04 87.28,14.2 C87.28,10.68 90.48,8.4 94.2,8.4 C97.64,8.4 99.56,9.32 101.16,10.48 L98.96,13.88 Z M107.8,5.68 C106,5.68 104.72,4.52 104.72,2.84 C104.72,1.2 106,1.0658141e-14 107.8,1.0658141e-14 C109.6,1.0658141e-14 110.88,1.2 110.88,2.84 C110.88,4.52 109.6,5.68 107.8,5.68 Z M105.24,28.12 L105.24,8.76 L110.36,8.76 L110.36,28.12 L105.24,28.12 Z M124.56,28.56 C118.6,28.56 114.04,24.64 114.04,18.52 C114.04,12.4 118.6,8.4 124.56,8.4 C130.48,8.4 135.04,12.4 135.04,18.52 C135.04,24.64 130.48,28.56 124.56,28.56 Z M129.76,18.4 C129.76,15.08 127.84,12.52 124.56,12.52 C121.2,12.52 119.36,15.08 119.36,18.4 C119.36,21.72 121.2,24.32 124.56,24.32 C127.84,24.32 129.76,21.72 129.76,18.4 Z M151.4,28.12 L151.4,17.76 C151.4,14.88 150.88,12.6 147.92,12.6 C144.76,12.6 143.68,15.24 143.68,18.48 L143.68,28.12 L138.56,28.12 L138.56,8.76 L143.68,8.76 L143.64,11.68 L143.76,11.68 C144.8,9.64 146.76,8.4 149.56,8.4 C155.12,8.4 156.52,12 156.52,16.64 L156.52,28.12 L151.4,28.12 Z" id="wpfusion"></path>
                        </g>
                        <g id="Mark-Copy" transform="translate(0.000000, 0.500000)">
                            <path d="M8,0.5 L38,0.5 L38,0.5 L38,30.5 C38,34.918278 34.418278,38.5 30,38.5 L0,38.5 L0,38.5 L0,8.5 C-5.41083001e-16,4.081722 3.581722,0.5 8,0.5 Z" id="BG" fill="#E55B10"></path>
                            <path d="M31,15.5 C31,16.3284271 30.3284271,17 29.5,17 L17.5,16.999 L17.5,29 C17.5,29.8284271 16.8284271,30.5 16,30.5 L15,30.5 C14.1715729,30.5 13.5,29.8284271 13.5,29 L13.5,15 C13.5,14.4577643 13.7877138,13.9827278 14.2188066,13.7192253 C14.4827278,13.2877138 14.9577643,13 15.5,13 L29.5,13 C30.3284271,13 31,13.6715729 31,14.5 L31,15.5 Z" id="Path" fill="#FFFFFF"></path>
                            <path d="M8,23 C8,22.1715729 8.67157288,21.5 9.5,21.5 L21.5,21.501 L21.5,9.5 C21.5,8.67157288 22.1715729,8 23,8 L24,8 C24.8284271,8 25.5,8.67157288 25.5,9.5 L25.5,23.5 C25.5,24.0422357 25.2122862,24.5172722 24.7811934,24.7807747 C24.5172722,25.2122862 24.0422357,25.5 23.5,25.5 L9.5,25.5 C8.67157288,25.5 8,24.8284271 8,24 L8,23 Z" id="Path" fill="#FFFFFF"></path>
                        </g>
                    </g>
                </g>
            </g>
        </g>
    </g>
</svg>