<?xml version="1.0" encoding="UTF-8"?>
<svg width="211px" height="39px" viewBox="0 0 211 39" version="1.1" xmlns="http://www.w3.org/2000/svg" xmlns:xlink="http://www.w3.org/1999/xlink">
    <!-- Generator: Sketch 56.3 (81716) - https://sketch.com -->
    <title>Logo (Larger)</title>
    <desc>Created with Sketch.</desc>
    <g id="Landing-Page" stroke="none" stroke-width="1" fill="none" fill-rule="evenodd">
        <g id="Landing-Page-(Type-Outlined)" transform="translate(-115.000000, -38.000000)">
            <g id="Section---Splash" transform="translate(106.000000, -602.000000)">
                <g id="Logo-(Larger)" transform="translate(9.000000, 639.050453)">
                    <g id="wpfusion" transform="translate(53.600000, 2.880000)" fill="#0B328E" fill-rule="nonzero">
                        <path d="M25.4,9.56 L27.6,9.56 L21.4,28.12 L19.6,28.12 L13.8,12.52 L8,28.12 L6.2,28.12 L0,9.56 L2.2,9.56 L7.2,25.12 L13,9.52 L14.6,9.52 L20.4,25.12 L25.4,9.56 Z M49.6,18.92 C49.6,24.44 46,28.52 40.48,28.52 C37.8,28.52 35.28,27.44 33.48,24.64 L33.48,35.72 L31.4,35.72 L31.4,9.56 L33.48,9.56 L33.48,13.16 C35.04,10.52 37.6,9.24 40.4,9.24 C46.12,9.24 49.6,13.44 49.6,18.92 Z M47.4,18.92 C47.4,14.64 44.88,11.04 40.4,11.04 C35.88,11.04 33.4,14.56 33.4,18.92 C33.4,23.16 35.88,26.64 40.4,26.64 C44.88,26.64 47.4,23.24 47.4,18.92 Z M54.36,28.12 L54.36,12.76 L51.72,12.76 L51.72,8.8 L54.36,8.8 L54.36,7.32 C54.36,3.04 56.28,0.04 60.84,0.04 C63.2,0.04 64.64,0.44 64.64,0.44 L64.32,4.12 C64.32,4.12 63.2,3.8 62.12,3.8 C59.92,3.8 59.4,5.28 59.4,7.12 L59.4,8.8 L63.84,8.8 L63.84,12.76 L59.48,12.76 L59.48,28.12 L54.36,28.12 Z M70.28,8.76 L70.28,19.12 C70.28,22 70.76,24.28 73.72,24.28 C76.8,24.28 77.96,21.84 77.96,18.6 L77.96,8.76 L83.08,8.76 L83.08,28.12 L78.12,28.12 L78.08,25.4 C76.96,27.32 74.88,28.48 72.08,28.48 C66.52,28.48 65.16,24.88 65.16,20.24 L65.16,8.76 L70.28,8.76 Z M98.96,13.88 C97.84,13.04 96.2,12.24 94.44,12.24 C92.76,12.24 91.92,12.88 91.92,13.8 C91.92,14.64 92.56,15.32 94.72,16 L96.08,16.44 C100.36,17.84 101.88,19.36 101.88,22.16 C101.88,25.84 98.96,28.56 94.2,28.56 C91.24,28.56 87.92,27.36 86.36,25.56 L88.44,22.08 C90.72,23.84 92.68,24.72 94.32,24.72 C96.24,24.72 97.12,24 97.12,22.88 C97.12,21.88 96.36,21.32 93.88,20.48 L91.64,19.72 C88.76,18.76 87.28,17.04 87.28,14.2 C87.28,10.68 90.48,8.4 94.2,8.4 C97.64,8.4 99.56,9.32 101.16,10.48 L98.96,13.88 Z M107.8,5.68 C106,5.68 104.72,4.52 104.72,2.84 C104.72,1.2 106,1.0658141e-14 107.8,1.0658141e-14 C109.6,1.0658141e-14 110.88,1.2 110.88,2.84 C110.88,4.52 109.6,5.68 107.8,5.68 Z M105.24,28.12 L105.24,8.76 L110.36,8.76 L110.36,28.12 L105.24,28.12 Z M124.56,28.56 C118.6,28.56 114.04,24.64 114.04,18.52 C114.04,12.4 118.6,8.4 124.56,8.4 C130.48,8.4 135.04,12.4 135.04,18.52 C135.04,24.64 130.48,28.56 124.56,28.56 Z M129.76,18.4 C129.76,15.08 127.84,12.52 124.56,12.52 C121.2,12.52 119.36,15.08 119.36,18.4 C119.36,21.72 121.2,24.32 124.56,24.32 C127.84,24.32 129.76,21.72 129.76,18.4 Z M151.4,28.12 L151.4,17.76 C151.4,14.88 150.88,12.6 147.92,12.6 C144.76,12.6 143.68,15.24 143.68,18.48 L143.68,28.12 L138.56,28.12 L138.56,8.76 L143.68,8.76 L143.64,11.68 L143.76,11.68 C144.8,9.64 146.76,8.4 149.56,8.4 C155.12,8.4 156.52,12 156.52,16.64 L156.52,28.12 L151.4,28.12 Z"></path>
                    </g>
                    <g id="Mark" transform="translate(0.000000, 0.500000)">
                        <path d="M8,0.5 L38,0.5 L38,30.5 C38,34.918278 34.418278,38.5 30,38.5 L0,38.5 L0,8.5 C-5.41083001e-16,4.081722 3.581722,0.5 8,0.5 Z" id="BG" fill="#E55B10"></path>
                        <path d="M17.5,26.5 L29.5,26.5 C30.3284271,26.5 31,27.1715729 31,28 L31,29 C31,29.8284271 30.3284271,30.5 29.5,30.5 L15.5,30.5 C14.9576554,30.5 14.4825369,30.2121705 14.2190665,29.7809335 C13.7878295,29.5174631 13.5,29.0423446 13.5,28.5 L13.5,14.5 C13.5,13.6715729 14.1715729,13 15,13 L16,13 C16.8284271,13 17.5,13.6715729 17.5,14.5 L17.5,26.5 Z" id="Rectangle-Copy-4" fill="#FFFFFF" transform="translate(22.250000, 21.750000) scale(-1, -1) rotate(-450.000000) translate(-22.250000, -21.750000) "></path>
                        <path d="M12,21.5 L24,21.5 C24.8284271,21.5 25.5,22.1715729 25.5,23 L25.5,24 C25.5,24.8284271 24.8284271,25.5 24,25.5 L10,25.5 C9.45765536,25.5 8.98253689,25.2121705 8.71906647,24.7809335 C8.28782945,24.5174631 8,24.0423446 8,23.5 L8,9.5 C8,8.67157288 8.67157288,8 9.5,8 L10.5,8 C11.3284271,8 12,8.67157288 12,9.5 L12,21.5 Z" id="Rectangle-Copy-7" fill="#FFFFFF" transform="translate(16.750000, 16.750000) scale(-1, -1) rotate(-270.000000) translate(-16.750000, -16.750000) "></path>
                    </g>
                </g>
            </g>
        </g>
    </g>
</svg>